<svg width="40" height="40" viewBox="0 0 40 40" fill="none" xmlns="http://www.w3.org/2000/svg">
<rect width="40" height="40" fill="white"/>
<path fill-rule="evenodd" clip-rule="evenodd" d="M6.40283 13.9499C6.14518 13.9499 5.93522 14.1631 5.93522 14.4248V33.4218C5.93522 33.6835 6.14518 33.8968 6.40283 33.8968H21.3664C21.6241 33.8968 21.834 33.6835 21.834 33.4218V19.3707L16.4967 13.9499H6.40283ZM21.3664 34.8466H6.40283C5.6294 34.8466 5 34.2074 5 33.4218V14.4248C5 13.6393 5.6294 13 6.40283 13H16.6903C16.8142 13 16.9334 13.0499 17.0209 13.1392L22.6322 18.8383C22.7201 18.9271 22.7692 19.0482 22.7692 19.174V33.4218C22.7692 34.2074 22.1398 34.8466 21.3664 34.8466V34.8466Z" fill="#007AFF"/>
<path fill-rule="evenodd" clip-rule="evenodd" d="M22.3016 19.6491H16.6903C16.4321 19.6491 16.2227 19.4363 16.2227 19.1741V13.95H17.1579V18.6992H22.3016V19.6491Z" fill="#007AFF"/>
<path fill-rule="evenodd" clip-rule="evenodd" d="M13.8846 21.0736H8.27328C8.01515 21.0736 7.80566 20.8609 7.80566 20.5987C7.80566 20.3365 8.01515 20.1238 8.27328 20.1238H13.8846C14.1427 20.1238 14.3522 20.3365 14.3522 20.5987C14.3522 20.8609 14.1427 21.0736 13.8846 21.0736" fill="#007AFF"/>
<path fill-rule="evenodd" clip-rule="evenodd" d="M19.4959 23.9232H8.27328C8.01515 23.9232 7.80566 23.7105 7.80566 23.4483C7.80566 23.1862 8.01515 22.9734 8.27328 22.9734H19.4959C19.7541 22.9734 19.9636 23.1862 19.9636 23.4483C19.9636 23.7105 19.7541 23.9232 19.4959 23.9232" fill="#007AFF"/>
<path fill-rule="evenodd" clip-rule="evenodd" d="M19.4959 26.7729H8.27328C8.01515 26.7729 7.80566 26.5601 7.80566 26.2979C7.80566 26.0358 8.01515 25.823 8.27328 25.823H19.4959C19.7541 25.823 19.9636 26.0358 19.9636 26.2979C19.9636 26.5601 19.7541 26.7729 19.4959 26.7729" fill="#007AFF"/>
<path fill-rule="evenodd" clip-rule="evenodd" d="M19.4959 29.6225H8.27328C8.01515 29.6225 7.80566 29.4097 7.80566 29.1475C7.80566 28.8854 8.01515 28.6726 8.27328 28.6726H19.4959C19.7541 28.6726 19.9636 28.8854 19.9636 29.1475C19.9636 29.4097 19.7541 29.6225 19.4959 29.6225" fill="#007AFF"/>
<rect x="17" y="5" width="18" height="22" fill="white"/>
<path fill-rule="evenodd" clip-rule="evenodd" d="M18.4028 5.94985C18.1452 5.94985 17.9352 6.16309 17.9352 6.42478V25.4218C17.9352 25.6835 18.1452 25.8968 18.4028 25.8968H33.3664C33.6241 25.8968 33.834 25.6835 33.834 25.4218V11.3707L28.4967 5.94985H18.4028ZM33.3664 26.8466H18.4028C17.6294 26.8466 17 26.2074 17 25.4218V6.42478C17 5.63925 17.6294 5 18.4028 5H28.6903C28.8142 5 28.9334 5.04987 29.0209 5.13915L34.6322 10.8383C34.7201 10.9271 34.7692 11.0482 34.7692 11.174V25.4218C34.7692 26.2074 34.1398 26.8466 33.3664 26.8466V26.8466Z" fill="#007AFF"/>
<path fill-rule="evenodd" clip-rule="evenodd" d="M34.3016 11.6491H28.6903C28.4321 11.6491 28.2227 11.4363 28.2227 11.1741V5.94995H29.1579V10.6992H34.3016V11.6491Z" fill="#007AFF"/>
<path fill-rule="evenodd" clip-rule="evenodd" d="M25.8846 13.0736H20.2733C20.0152 13.0736 19.8057 12.8609 19.8057 12.5987C19.8057 12.3365 20.0152 12.1238 20.2733 12.1238H25.8846C26.1427 12.1238 26.3522 12.3365 26.3522 12.5987C26.3522 12.8609 26.1427 13.0736 25.8846 13.0736" fill="#007AFF"/>
<path fill-rule="evenodd" clip-rule="evenodd" d="M31.4959 15.9232H20.2733C20.0152 15.9232 19.8057 15.7105 19.8057 15.4483C19.8057 15.1862 20.0152 14.9734 20.2733 14.9734H31.4959C31.7541 14.9734 31.9636 15.1862 31.9636 15.4483C31.9636 15.7105 31.7541 15.9232 31.4959 15.9232" fill="#007AFF"/>
<path fill-rule="evenodd" clip-rule="evenodd" d="M31.4959 18.7729H20.2733C20.0152 18.7729 19.8057 18.5601 19.8057 18.2979C19.8057 18.0358 20.0152 17.823 20.2733 17.823H31.4959C31.7541 17.823 31.9636 18.0358 31.9636 18.2979C31.9636 18.5601 31.7541 18.7729 31.4959 18.7729" fill="#007AFF"/>
<path fill-rule="evenodd" clip-rule="evenodd" d="M31.4959 21.6225H20.2733C20.0152 21.6225 19.8057 21.4097 19.8057 21.1475C19.8057 20.8854 20.0152 20.6726 20.2733 20.6726H31.4959C31.7541 20.6726 31.9636 20.8854 31.9636 21.1475C31.9636 21.4097 31.7541 21.6225 31.4959 21.6225" fill="#007AFF"/>
</svg>
